<svg height="39" viewBox="0 0 107 39" width="107" xmlns="http://www.w3.org/2000/svg"><g fill="#151a25" transform="translate(.814947 .532)"><path d="m16.3170526 31.196c-.3813333.0293333-.726-.0513333-1.034-.242s-.5206666-.4326667-.638-.726c-.1466666-.1466667-.3446666-.4693333-.594-.968-.2493333-.4986667-.4033333-.9093333-.462-1.232-.1173333-1.408-.176-2.4346667-.176-3.08 0-.8213333.044-1.936.132-3.344.1173334-1.4666667.33-2.7426667.638-3.828s.682-2.244 1.122-3.476c.1173334-.264.2053334-.484.264-.66.0586667-.176.0586667-.264 0-.264-.2053333.0293333-.572.6453333-1.1 1.848-.088.176-.198.4106667-.33.704s-.3006666.616-.506.968c-.8213333 1.8186667-2.332 4.576-4.53199997 8.272-.264.3226667-.63066667.836-1.1 1.54-.90933333 1.3786667-1.65733333 2.332-2.244 2.86-.82133333.792-1.68666667 1.188-2.596 1.188-.38133333 0-.80666667-.1026667-1.276-.308-.46933333-.0586667-.924-.3813333-1.364-.968-.44-.5866667-.60133333-1.144-.484-1.672-.088-.7333333-.00733333-2.2366667.242-4.51.24933334-2.2733333.506-4.1726667.77-5.698.20533333-1.408.66-3.7253333 1.364-6.952l.968-4.752c.176-.44.45466667-1.32.836-2.64l.396-1.452c.02933333-.46933333.18333333-.814.462-1.034s.62333333-.33 1.034-.33c.352 0 .68933333.066 1.012.198s.55733333.30066667.704.506c.616.67466667.924 1.408.924 2.2 0 .46933333-.10266667.968-.308 1.496-1.32 3.22666667-2.376 7.48-3.168 12.76-.29333333 1.8186667-.55 3.5346667-.77 5.148s-.27133333 2.4346667-.154 2.464c.44.1173333.99733333-.528 1.672-1.936 1.936-3.1973333 4.15066667-7.2306667 6.64399997-12.1.0586667-.088.704-1.29066667 1.936-3.608l1.056-1.98.704-1.276c.7626667-1.37866667 1.364-2.42 1.804-3.124s.7626667-1.1.968-1.188c.7333334 0 1.298.18333333 1.694.55s.7406667.88733333 1.034 1.562c.0586667.23466667.088.51333333.088.836 0 .29333333-.044.572-.132.836-.0586666.176-.198.616-.418 1.32s-.4033333 1.408-.55 2.112c-.5573333 1.46666667-.968 2.8893333-1.232 4.268-.1173333.5573333-.2346666 1.1-.352 1.628-.1173333.528-.22 1.0266667-.308 1.496-.4986666 2.2-.8726666 4.0333333-1.122 5.5-.2493333 1.4666667-.3886666 2.772-.418 3.916-.0293333.7626667-.022 1.276.022 1.54s.1246667.5426667.242.836c.0293334.1466667.1026667.22.22.22.176 0 .44-.22.792-.66.4106667-.5573333.7406667-1.1.99-1.628.2493334-.528.418-.88.506-1.056.352-.8506667.7186667-1.6133333 1.1-2.288 1.0266667-1.936 2.134-4.1653333 3.322-6.688s2.2073334-4.78133333 3.058-6.776c.8506667-2.43466667 1.518-4.17266667 2.002-5.214s.946-1.694 1.386-1.958c.176-.11733333.4546667-.176.836-.176.5573334 0 .968.11733333 1.232.352.0586667.02933333.2493334.19066667.572.484.3226667.29333333.4693334.63066667.44 1.012-.264.90933333-.9826666 2.816-2.156 5.72-1.1733333 2.904-2.0826666 5.06-2.728 6.468-.1173333.2053333-.352.6013333-.704 1.188-.0586666.088-.1833333.3006667-.374.638-.1906666.3373333-.286.594-.286.77 0 .2933333-.77 1.826-2.31 4.598s-2.6766666 4.6273333-3.41 5.566c-.6746666.8506667-1.4226666 1.5913333-2.244 2.222-.8213333.6306667-1.5693333 1.122-2.244 1.474-.6746666.352-1.1293333.528-1.364.528z"/><path d="m31.1010526 27.28c-.4106666-.3226667-.7333333-.6306667-.968-.924-.2346666-.2933333-.308-.704-.22-1.232.088-.9973333.308-2.156.66-3.476l.22-.88c.088-.792.55-2.354 1.386-4.686s1.5326667-3.9086667 2.09-4.73c.2933334-.2933333.792-.44 1.496-.44.5866667 0 .9973334.1173333 1.232.352.2346667.176.352.4693333.352.88 0 .6746667-.4253333 1.8626667-1.276 3.564l-.44.924c-.2053333.3813333-.374.7333333-.506 1.056s-.1246666.4693333.022.44c.3226667-.5573333 1.1073334-1.32 2.354-2.288 1.2466667-.968 2.1046667-1.5693333 2.574-1.804.2053334-.1173333.4693334-.2346667.792-.352.3226667-.1173333.5426667-.2053333.66-.264.528-.264 1.1293334-.396 1.804-.396.4693334 0 .8726667.066 1.21.198.3373334.132.5646667.33.682.594.0293334.2053333.11.3666667.242.484s.2273334.1906667.286.22c.088 0 .1466667.0366667.176.11.0293334.0733333.044.1246667.044.154 0 .2346667-.2053333.5353333-.616.902-.4106666.3666667-.836.5646667-1.276.594-.3226666.0293333-.66.1026667-1.012.22s-.704.264-1.056.44l-1.144.66c-.9973333.4986667-1.8406666.99-2.53 1.474-.6893333.484-1.386 1.1073333-2.09 1.87-.1466666.1466667-.3593333.352-.638.616-.2786666.264-.5206666.572-.726.924-.2053333.2053333-.418.7406667-.638 1.606s-.33 1.4006667-.33 1.606c-.0293333.088-.088.264-.176.528s-.22.4986667-.396.704c-.264.3226667-.484.5573333-.66.704s-.3666666.22-.572.22c-.2933333 0-.6306666-.1906667-1.012-.572z"/><path d="m50.9890526 10.076c-.2933333-.20533333-.528-.46933333-.704-.792s-.2786666-.63066667-.308-.924c-.0293333-.29333333 0-.46933333.088-.528.176-.20533333.352-.484.528-.836s.308-.60133333.396-.748c.2346667-.528.4253334-.90933333.572-1.144.2053334-.41066667.396-.63066667.572-.66.2346667-.11733333.4253334-.176.572-.176.3813334 0 .7993334.132 1.254.396.4546667.264.7993334.572 1.034.924.2053334.46933333.308.88.308 1.232 0 .704-.3373333 1.48133333-1.012 2.332-.2933333.38133333-.6453333.67466667-1.056.88-.4106666.2053333-.8213333.308-1.232.308-.4106666 0-.748-.088-1.012-.264zm-4.752 17.644c-.4106666-.4106667-.616-1.144-.616-2.2 0-.5573333.0733334-.9826667.22-1.276 0-.1466667.0293334-.3226667.088-.528.0586667-.2053333.088-.3373333.088-.396-.0293333-.176.088-.66.352-1.452.352-.792.7993334-2.0093333 1.342-3.652.5426667-1.6426667.9166667-2.816 1.122-3.52 0-.1466667.0586667-.2713333.176-.374.1173334-.1026667.2933334-.1686667.528-.198.3226667-.1173333.7333334.022 1.232.418.4986667.396.9093334.8433333 1.232 1.342.176.176.264.4106667.264.704 0 .44-.1906666 1.056-.572 1.848-.1466666.3226667-.286.7186667-.418 1.188s-.242.9093333-.33 1.32c-.352.792-.6306666 1.5253333-.836 2.2-.088.3813333-.1466666.6746667-.176.88-.2053333 1.0853333-.396 1.7893333-.572 2.112-.176.7333333-.4253333 1.2833333-.748 1.65-.3226666.3666667-.6893333.55-1.1.55-.4986666 0-.924-.2053333-1.276-.616z"/><path d="m60.4490526 28.732c-.6453333-.176-1.4813333-.7186667-2.508-1.628-.4986666-.6453333-.792-1.2246667-.88-1.738s-.132-1.5326667-.132-3.058c0-.704.352-2.464 1.056-5.28.0293334-.1173333.132-.5133333.308-1.188.088-.3226667-.0293333-.528-.352-.616-.3226666-.088-.7773333-.132-1.364-.132-.4986666 0-.792-.0293333-.88-.088-.088-.0293333-.1393333-.1613333-.154-.396-.0146666-.2346667-.022-.396-.022-.484s-.066-.176-.198-.264-.2273333-.176-.286-.264c-.088-.1173333-.0146666-.3373333.22-.66.2346667-.3226667.4986667-.5133333.792-.572.176-.0293333.5573334-.0733333 1.144-.132.5866667-.0586667 1.1513334-.176 1.694-.352.5426667-.176.946-.4253333 1.21-.748.3813334-.9973333.8286667-2.05333333 1.342-3.168.5133334-1.11466667.8726667-1.77466667 1.078-1.98.4693334-.23466667.8946667-.352 1.276-.352.6453334 0 1.144.264 1.496.792.088.11733333.1906667.23466667.308.352.1173334.11733333.176.24933333.176.396 0 .20533333-.0953333.528-.286.968-.1906666.44-.5646666 1.15866667-1.122 2.156l-.572 1.1c.088.0293333.2933334.044.616.044.3226667 0 .5866667-.0146667.792-.044.6453334-.1173333 1.144-.176 1.496-.176.264 0 .4546667.0146667.572.044 1.232 0 1.9066667.6746667 2.024 2.024.0586667.352-.066.638-.374.858s-.8433333.33-1.606.33c-3.0213333.1173333-4.5466666.2493333-4.576.396-.1466666.088-.3813333.5426667-.704 1.364-.3226666.8213333-.5866666 1.5986667-.792 2.332-.352 1.5253333-.528 2.9626667-.528 4.312 0 1.2906667.1906667 2.1266667.572 2.508.1173334.1173333.2786667.176.484.176.528 0 1.276-.396 2.244-1.188.3226667-.2933333.6746667-.44 1.056-.44.3226667 0 .5793334.1173333.77.352.1906667.2346667.286.5426667.286.924 0 .44-.1466666.8653333-.44 1.276-.44.6746667-1.1 1.232-1.98 1.672s-1.716.66-2.508.66c-.352 0-.6013333-.0293333-.748-.088z"/><path d="m73.7370526 29.26c-3.344 0-5.016-1.9066667-5.016-5.72 0-1.3786667.3446667-2.9406667 1.034-4.686.6893334-1.7453333 1.5546667-3.3146667 2.596-4.708 1.0413334-1.3933333 2.0753334-2.3246667 3.102-2.794.5573334-.2933333 1.2026667-.44 1.936-.44 1.32 0 2.4713334.286 3.454.858.9826667.572 1.474 1.65 1.474 3.234 0 .9093333-.308 1.9066667-.924 2.992s-1.386 2.002-2.31 2.75-1.826 1.122-2.706 1.122c-1.32 0-2.4346666-.4253333-3.344-1.276-.4986666.9973333-.748 1.9506667-.748 2.86 0 .7333333.088 1.298.264 1.694s.5866667.594 1.232.594c.616 0 1.1146667-.088 1.496-.264.3813334-.176.7333334-.3813333 1.056-.616.3226667-.2346667.572-.4106667.748-.528l.176-.088h-.044c.528-.2933333.9166667-.5206667 1.166-.682.2493334-.1613333.462-.2713333.638-.33.44 0 .8506667.132 1.232.396.3813334.264.572.5866667.572.968 0 .2933333-.264.77-.792 1.43s-1.0706666 1.122-1.628 1.386l-.528.264h.044c-.264.352-.528.528-.792.528h-.352c-.1173333.2346667-.506.4693333-1.166.704s-1.2833333.352-1.87.352zm2.288-10.604c.8213334 0 1.5033334-.352 2.046-1.056.5426667-.704.814-1.408.814-2.112 0-.3226667-.0806666-.616-.242-.88-.1613333-.264-.374-.396-.638-.396-.4986666 0-1.056.2346667-1.672.704s-1.1586666 1.0853333-1.628 1.848l-.572.924c.1173334-.0586667.2053334-.088.264-.088.2346667 0 .4106667.1026667.528.308.1173334.2053333.2493334.3813333.396.528.1466667.1466667.3813334.22.704.22z"/><path d="m84.2970526 29.788c-.44-.1466667-.77-.4106667-.99-.792s-.33-.9386667-.33-1.672c0-1.2026667.1173334-2.376.352-3.52l.044-.352c.0293334-.176.0733334-.462.132-.858.0586667-.396.1026667-.506.132-.33l.264-1.188c.2053334-.8213333.4033334-1.584.594-2.288.1906667-.704.3446667-1.2173333.462-1.54l.484-1.54c.88-2.8453333 1.7013334-4.7666667 2.464-5.764.0293334-.11733333.0733334-.22733333.132-.33.0586667-.10266667.1026667-.21266667.132-.33 0-.46933333.088-.836.264-1.1.264-.44.484-.836.66-1.188l.176-.484 1.232-2.508c.088-.29333333.2713334-.616.55-.968.2786667-.352.5646667-.58666667.858-.704l-.044-.044c.1466667-.23466667.418-.44.814-.616s.7406667-.264 1.034-.264c.3813334 0 .6893334.11733333.924.352.2346667.23466667.352.55733333.352.968v.44c0 .264-.022.46933333-.066.616s-.1393333.32266667-.286.528h.044c.0293334.02933333.0073334.12466667-.066.286-.0733333.16133333-.1393333.31533333-.198.462-.2053333.528-.352.82133333-.44.88-.2053333.264-.88 1.50333333-2.024 3.718-1.144 2.2146667-1.8773333 3.7473333-2.2 4.598l-.176.66-.088.264c-.3226666.704-.4986666 1.0853333-.528 1.144l-.704 2.728-.176.924-.396 1.012-.264.836c-.0586666.1466667-.11.3373333-.154.572s-.0953333.3813333-.154.44l-.044.22c-.0293333.1173333-.132.4546667-.308 1.012-.264.8213333-.4546666 1.5033333-.572 2.046-.1173333.5426667-.1906666 1.122-.22 1.738l-.044.176c-.088.6453333-.2713333 1.1293333-.55 1.452-.2786666.3226667-.638.4253333-1.078.308z"/><path d="m104.889053 12.232c.381333.4106667.66.7553333.836 1.034s.264.6086667.264.99c0 .616-.234667 1.3493333-.704 2.2-.234667.6746667-.491334 1.3053333-.77 1.892-.278667.5866667-.491334.968-.638 1.144l-1.012 2.332c-.44.968-.982667 2.0973333-1.628 3.388-.792 1.6426667-1.3493337 2.86-1.6720004 3.652l-.572.924c-1.4666666 2.3466667-2.596 3.9893333-3.388 4.928-.6453333.5866667-1.408 1.1953333-2.288 1.826s-1.584.99-2.112 1.078c-.5573333.1173333-1.1733333.176-1.848.176-1.2026666 0-2.2733333-.2053333-3.212-.616-.9386666-.4106667-1.4813333-.9093333-1.628-1.496l-.088-.528c0-.4986667.198-.8873333.594-1.166s.8286667-.418 1.298-.418c.2933334 0 .5133334.0733333.66.22.0586667.0293333.2933334.1906667.704.484.4106667.2933333.968.44 1.672.44 1.32 0 2.6106667-.8653333 3.872-2.596 1.232-1.9653333 2.1706667-3.5346667 2.816-4.708-.5866666-.352-1.1586666-.946-1.716-1.782-.5573333-.836-.8066666-1.4153333-.748-1.738v-.484c-.2346666 0-.4033333-.44-.506-1.32-.1026666-.88-.154-1.9653333-.154-3.256 0-1.408.0293334-2.3906667.088-2.948.1173334-.4693333.1833334-1.0486667.198-1.738.0146667-.6893333.022-1.1366667.022-1.342-.0293333-.4106667.0513334-.77.242-1.078.1906667-.308.374-.5206667.55-.638.3813334-.1466667.6893334-.22.924-.22 1.3493334 0 2.024 1.4373333 2.024 4.312 0 .5573333-.0146666.9826667-.044 1.276-.0586666 1.408-.088 2.4053333-.088 2.992 0 2.2586667.308 3.7253333.924 4.4.264-.616.484-1.056.66-1.32.4106667-.8506667.6453334-1.3933333.704-1.628.0586667-.2053333.22-.5426667.484-1.012l.5720004-1.188c.058666-.176.249333-.7406667.572-1.694.322666-.9533333.645333-1.7233333.968-2.31.117333-.2346667.293333-.5793333.528-1.034.234666-.4546667.425333-.7846667.572-.99.146666-.2053333.308-.3373333.484-.396.234666-.2053333.484-.308.748-.308s.542666.088.836.264z"/></g></svg>